<mxfile host="Electron" modified="2023-04-26T23:08:20.896Z" agent="Mozilla/5.0 (Windows NT 10.0; Win64; x64) AppleWebKit/537.36 (KHTML, like Gecko) draw.io/21.2.1 Chrome/112.0.5615.87 Electron/24.1.2 Safari/537.36" etag="fD9xY3dcyDwYYzsvL33v" version="21.2.1" type="device">
  <diagram id="R2lEEEUBdFMjLlhIrx00" name="Page-1">
    <mxGraphModel dx="1036" dy="606" grid="1" gridSize="10" guides="1" tooltips="1" connect="1" arrows="1" fold="1" page="1" pageScale="1" pageWidth="850" pageHeight="1100" math="0" shadow="0" extFonts="Permanent Marker^https://fonts.googleapis.com/css?family=Permanent+Marker">
      <root>
        <mxCell id="0" />
        <mxCell id="1" parent="0" />
        <mxCell id="oQdXcEZ0_1hl_Ibp61su-3" value="" style="edgeStyle=orthogonalEdgeStyle;rounded=0;orthogonalLoop=1;jettySize=auto;html=1;" edge="1" parent="1" source="oQdXcEZ0_1hl_Ibp61su-1" target="oQdXcEZ0_1hl_Ibp61su-2">
          <mxGeometry relative="1" as="geometry" />
        </mxCell>
        <mxCell id="oQdXcEZ0_1hl_Ibp61su-5" value="" style="edgeStyle=orthogonalEdgeStyle;rounded=0;orthogonalLoop=1;jettySize=auto;html=1;" edge="1" parent="1" source="oQdXcEZ0_1hl_Ibp61su-1" target="oQdXcEZ0_1hl_Ibp61su-4">
          <mxGeometry relative="1" as="geometry" />
        </mxCell>
        <mxCell id="oQdXcEZ0_1hl_Ibp61su-6" value="" style="edgeStyle=orthogonalEdgeStyle;rounded=0;orthogonalLoop=1;jettySize=auto;html=1;" edge="1" parent="1" source="oQdXcEZ0_1hl_Ibp61su-1" target="oQdXcEZ0_1hl_Ibp61su-4">
          <mxGeometry relative="1" as="geometry" />
        </mxCell>
        <mxCell id="oQdXcEZ0_1hl_Ibp61su-7" style="edgeStyle=orthogonalEdgeStyle;rounded=0;orthogonalLoop=1;jettySize=auto;html=1;" edge="1" parent="1" source="oQdXcEZ0_1hl_Ibp61su-1">
          <mxGeometry relative="1" as="geometry">
            <mxPoint x="260" y="340" as="targetPoint" />
          </mxGeometry>
        </mxCell>
        <mxCell id="oQdXcEZ0_1hl_Ibp61su-8" style="edgeStyle=orthogonalEdgeStyle;rounded=0;orthogonalLoop=1;jettySize=auto;html=1;exitX=1;exitY=1;exitDx=0;exitDy=0;" edge="1" parent="1" source="oQdXcEZ0_1hl_Ibp61su-1">
          <mxGeometry relative="1" as="geometry">
            <mxPoint x="550" y="440" as="targetPoint" />
          </mxGeometry>
        </mxCell>
        <mxCell id="oQdXcEZ0_1hl_Ibp61su-1" value="payment" style="rounded=1;whiteSpace=wrap;html=1;" vertex="1" parent="1">
          <mxGeometry x="100" y="310" width="110" height="60" as="geometry" />
        </mxCell>
        <mxCell id="oQdXcEZ0_1hl_Ibp61su-2" value="create order" style="rounded=1;whiteSpace=wrap;html=1;" vertex="1" parent="1">
          <mxGeometry x="100" y="450" width="120" height="170" as="geometry" />
        </mxCell>
        <mxCell id="oQdXcEZ0_1hl_Ibp61su-4" value="send data" style="ellipse;whiteSpace=wrap;html=1;rounded=1;" vertex="1" parent="1">
          <mxGeometry x="530" y="300" width="80" height="80" as="geometry" />
        </mxCell>
        <mxCell id="oQdXcEZ0_1hl_Ibp61su-9" value="recive and compare&amp;nbsp;" style="ellipse;whiteSpace=wrap;html=1;aspect=fixed;" vertex="1" parent="1">
          <mxGeometry x="510" y="460" width="80" height="80" as="geometry" />
        </mxCell>
        <mxCell id="oQdXcEZ0_1hl_Ibp61su-10" value="data valide for user&amp;nbsp;" style="rounded=1;whiteSpace=wrap;html=1;" vertex="1" parent="1">
          <mxGeometry x="50" y="390" width="80" height="40" as="geometry" />
        </mxCell>
      </root>
    </mxGraphModel>
  </diagram>
</mxfile>
